<svg height="496pt" viewBox="0 0 496 496" width="496pt" xmlns="http://www.w3.org/2000/svg"><path d="m472 448h-8v-248c0-13.230469-10.769531-24-24-24h-88v-64h35.105469l-21.335938-64h-27.34375l-72-48h-36.839843l-72 48h-27.347657l-21.335937 64h35.097656v64h-88c-13.230469 0-24 10.769531-24 24v248h-8c-13.230469 0-24 10.769531-24 24v24h496v-24c0-13.230469-10.769531-24-24-24zm-32-256c4.414062 0 8 3.59375 8 8v248h-96v-256zm-298.230469-128h20.65625l72-48h27.160157l72 48h20.652343l10.664063 32h-233.796875zm194.230469 48v336h-16v-143.015625c0-18.390625-12.464844-34.34375-30.304688-38.808594l-41.695312-10.421875-41.695312 10.421875c-17.839844 4.464844-30.304688 20.417969-30.304688 38.808594v143.015625h-16v-336zm-32 240h-48v-32h48zm0 16v32h-48v-32zm-48-64v-29.753906l29.824219 7.457031c10.375 2.59375 17.664062 11.6875 18.097656 22.296875zm-16 0h-47.921875c.433594-10.609375 7.722656-19.703125 18.097656-22.296875l29.824219-7.457031zm-48 16h48v32h-48zm0 48h48v32h-48zm0 48h48v32h-48zm64 0h48v32h-48zm-208-216c0-4.40625 3.585938-8 8-8h88v256h-96zm432 280h-464v-8c0-4.40625 3.585938-8 8-8h448c4.414062 0 8 3.59375 8 8zm0 0"/><path d="m248 208c-4.414062 0-8-3.59375-8-8h-16c0 10.414062 6.710938 19.214844 16 22.527344v17.472656h16v-16h16v-24c0-13.230469-10.769531-24-24-24-4.414062 0-8-3.59375-8-8v-8h8c4.414062 0 8 3.59375 8 8h16c0-10.414062-6.710938-19.214844-16-22.527344v-17.472656h-16v16h-16v24c0 13.230469 10.769531 24 24 24 4.414062 0 8 3.59375 8 8v8zm0 0"/><path d="m432 432v-64h-64v64zm-48-48h32v32h-32zm0 0"/><path d="m432 288h-64v64h64zm-16 48h-32v-32h32zm0 0"/><path d="m432 208h-64v64h64zm-16 48h-32v-32h32zm0 0"/><path d="m64 432h64v-64h-64zm16-48h32v32h-32zm0 0"/><path d="m64 352h64v-64h-64zm16-48h32v32h-32zm0 0"/><path d="m64 208v64h64v-64zm48 48h-32v-32h32zm0 0"/><path d="m288 176h16v16h-16zm0 0"/><path d="m192 176h16v16h-16zm0 0"/></svg>