<svg id="Capa_1" enable-background="new 0 0 510.179 510.179" height="512" viewBox="0 0 510.179 510.179" width="512" xmlns="http://www.w3.org/2000/svg"><g><g><path d="m251.264 295.409c-3.457-2.26-8.091-1.292-10.351 2.165-2.261 3.456-1.292 8.09 2.164 10.351 9.378 6.134 15.794 7.983 24.047 8.461v7.828c0 4.13 3.348 7.478 7.478 7.478s7.478-3.347 7.478-7.478v-8.427c16.489-3.282 26.119-16.901 28.258-29.622 2.756-16.396-5.82-30.651-21.847-36.317-2.107-.745-4.261-1.525-6.411-2.337v-34.51c5.345 1.317 8.527 4.016 8.81 4.264 3.038 2.751 7.731 2.543 10.515-.474 2.8-3.036 2.61-7.767-.427-10.566-.418-.386-7.424-6.7-18.898-8.456v-6.989c0-4.13-3.348-7.478-7.478-7.478s-7.478 3.347-7.478 7.478v7.561c-1.062.236-2.138.506-3.239.837-10.56 3.181-18.451 12.217-20.593 23.581-1.954 10.367 1.369 20.366 8.675 26.096 3.844 3.015 8.622 5.777 15.157 8.69v43.862c-5.586-.429-9.49-1.832-15.86-5.998zm9.933-58.323c-2.894-2.27-4.124-6.699-3.207-11.557.814-4.316 3.638-9.499 9.135-11.657v27.022c-2.228-1.218-4.244-2.486-5.928-3.808zm22.308 26.862c13.49 4.768 12.659 16.312 12.083 19.737-1.116 6.641-5.716 13.677-13.509 16.544v-36.791c.476.17.939.338 1.426.51z"/><path d="m504.181 385.763c-9.93-15.377-29.268-21.318-46.097-14.212l-20.094 6.636v-10.102c0-14.184-11.539-25.723-25.723-25.723-3.369 0-6.11-2.741-6.11-6.11v-136.914c0-27.627-14.28-52.972-38.199-67.798l-44.551-27.616v-24.344c7.598-5.281 23.625-19.445 32.789-49.492 2.031-6.661.823-13.687-3.316-19.277-4.124-5.567-10.461-8.761-17.39-8.761h-120.46c-6.929 0-13.266 3.194-17.39 8.761-4.139 5.59-5.347 12.616-3.316 19.277 9.163 30.047 25.191 44.211 32.789 49.492v24.344l-44.551 27.616c-23.919 14.826-38.199 40.171-38.199 67.798v33.958c0 4.13 3.347 7.478 7.478 7.478s7.478-3.348 7.478-7.478v-33.958c0-22.414 11.635-43.006 31.123-55.086l46.192-28.634h77.254l46.192 28.634c19.488 12.079 31.123 32.672 31.123 55.086v136.916c0 11.616 9.449 21.065 21.065 21.065 5.937 0 10.767 4.83 10.767 10.767v15.041l-77.545 25.61c.244-1.025.439-2.072.581-3.138 1.106-8.295-1.085-16.523-6.167-23.17-5.034-6.582-12.307-10.833-20.502-11.989 0 0-123.439-24.396-129.046-24.02-14.619.937-26.849 9.796-37.64 17.612-1.286.932-2.549 1.847-3.791 2.727-7.033 4.991-14.099 7.921-21.438 9.248v-7.921c0-5.937 4.831-10.767 10.767-10.767 11.616 0 21.065-9.449 21.065-21.065v-68.449c0-4.13-3.347-7.478-7.478-7.478s-7.478 3.348-7.478 7.478v68.449c0 3.369-2.741 6.11-6.111 6.11-14.183 0-25.722 11.539-25.722 25.723v8.575c-8.055-.618-16.568-2.624-25.809-5.535v-5.801c0-12.591-10.243-22.834-22.834-22.834h-41.052c-12.591-.001-22.835 10.242-22.835 22.833v119.97c0 12.591 10.244 22.834 22.835 22.834h41.052c12.591 0 22.834-10.243 22.834-22.834v-9.496l53.26-3.11c.066-.004.133-.009.2-.015 11.596-.989 23.499.612 34.422 4.636 56.983 20.989 57.694 21.25 57.694 21.25 11.695 4.308 22.988 6.043 33.981 6.043 23.373 0 45.373-7.852 66.869-15.525 4.892-1.746 9.949-3.551 14.937-5.232 19.764-6.658 39.809-12.687 58.647-18.292 3.958-1.177 6.213-5.342 5.035-9.3-1.177-3.958-5.338-6.208-9.3-5.035-18.968 5.643-39.16 11.716-59.158 18.453-5.115 1.723-10.236 3.552-15.189 5.319-30.437 10.864-59.184 21.124-90.659 9.532-.328-.121-57.69-21.25-57.69-21.25-12.935-4.763-27.031-6.67-40.763-5.511l-52.288 3.053v-74.033c21.92 6.477 46.426 9.51 70.859-7.828 1.279-.907 2.581-1.851 3.907-2.812 9.149-6.627 19.52-14.138 29.824-14.799 4.728-.315 32.156 5.328 42.483 7.447 3.008.616 82.931 16.365 82.931 16.365.151.029.304.054.456.075 4.335.577 8.185 2.808 10.841 6.282s3.801 7.774 3.223 12.109c-1.193 8.947-9.436 15.26-18.391 14.063-.066-.009-.132-.017-.2-.023l-66.044-7.005c-4.097-.436-7.789 2.54-8.225 6.647s2.54 7.789 6.647 8.225l65.953 6.996c4.514.588 8.93.169 13.031-1.068.417-.062 139.058-45.802 139.058-45.802.212-.07.422-.15.627-.239 10.166-4.402 21.907-.844 27.915 8.462 3.486 5.398 4.505 12.047 2.794 18.242-1.671 6.053-5.801 11.142-11.366 14.025-13.726 4.735-28.555 9.479-47.989 15.355-3.953 1.195-6.189 5.368-4.993 9.322.977 3.232 3.945 5.315 7.155 5.315.717 0 1.446-.104 2.167-.322 19.851-6.002 34.971-10.843 49.021-15.698.297-.102.587-.224.868-.363 9.582-4.73 16.709-13.352 19.553-23.653 2.848-10.303 1.154-21.36-4.643-30.337zm-195.729-285.1h-66.384v-17.754h66.384zm5.462-32.71h-77.305c-1.833-1.178-5.392-3.752-9.501-8.219-5.532-6.014-13.23-16.797-18.479-34.009-.635-2.081-.259-4.273 1.03-6.014 1.274-1.719 3.231-2.706 5.371-2.706h120.46c2.14 0 4.097.986 5.371 2.706 1.289 1.741 1.665 3.934 1.03 6.014-5.249 17.212-12.947 27.994-18.479 34.009-4.121 4.479-7.689 7.056-9.498 8.219zm-242.149 417.342c0 4.344-3.534 7.878-7.878 7.878h-41.052c-4.345 0-7.879-3.534-7.879-7.878v-119.97c0-4.344 3.534-7.878 7.879-7.878h41.052c4.344 0 7.878 3.534 7.878 7.878z"/></g></g></svg>