<?xml version="1.0" encoding="iso-8859-1"?>
<!-- Generator: Adobe Illustrator 19.0.0, SVG Export Plug-In . SVG Version: 6.00 Build 0)  -->
<svg version="1.1" id="Capa_1" xmlns="http://www.w3.org/2000/svg" xmlns:xlink="http://www.w3.org/1999/xlink" x="0px" y="0px"
	 viewBox="0 0 512 512" style="enable-background:new 0 0 512 512;" xml:space="preserve">
<g>
	<g>
		<polygon points="396.934,0 396.934,31.424 453.28,31.424 321.202,163.502 187.962,30.262 9.315,208.909 31.535,231.128 
			187.962,74.7 321.202,207.941 475.498,53.643 475.498,109.987 506.922,109.987 506.922,0 		"/>
	</g>
</g>
<g>
	<g>
		<path d="M4.714,329.97V512H106.53V329.97H4.714z M75.106,480.575H36.137V361.393h38.969V480.575z"/>
	</g>
</g>
<g>
	<g>
		<path d="M137.953,168.436V512h101.815V168.436H137.953z M208.345,480.576h-38.968V199.86h38.968V480.576z"/>
	</g>
</g>
<g>
	<g>
		<path d="M271.192,264.413V512h101.816V264.413H271.192z M341.585,480.576h-38.969v-184.74h38.969V480.576z"/>
	</g>
</g>
<g>
	<g>
		<path d="M405.47,168.436V512h101.816V168.436H405.47z M475.863,480.576h-38.969V199.86h38.969V480.576z"/>
	</g>
</g>
<g>
</g>
<g>
</g>
<g>
</g>
<g>
</g>
<g>
</g>
<g>
</g>
<g>
</g>
<g>
</g>
<g>
</g>
<g>
</g>
<g>
</g>
<g>
</g>
<g>
</g>
<g>
</g>
<g>
</g>
</svg>
