<svg id="Capa_1" enable-background="new 0 0 512 512" height="512" viewBox="0 0 512 512" width="512" xmlns="http://www.w3.org/2000/svg"><g><path d="m407.555 95.318c26.205 0 47.524-21.38 47.524-47.659s-21.319-47.659-47.524-47.659-47.524 21.38-47.524 47.659 21.319 47.659 47.524 47.659zm0-65.318c9.663 0 17.524 7.922 17.524 17.659s-7.861 17.659-17.524 17.659-17.524-7.922-17.524-17.659 7.861-17.659 17.524-17.659z"/><path d="m449.013 95.441c-6.784 0-89.021 0-85.049 0-11.649 0-22.941 3.218-32.737 9.203-9.539-5.837-20.736-9.203-32.703-9.203h-85.049c-11.602 0-22.919 3.232-32.724 9.212-9.542-5.842-20.744-9.212-32.717-9.212h-85.047c-34.731 0-62.987 28.345-62.987 63.186v141.494c0 8.284 6.716 15 15 15h21.331l9.277 182.64c.405 7.978 6.992 14.239 14.98 14.239h89.845c7.991 0 14.579-6.264 14.981-14.244l9.211-182.635h13.25l8.218 182.554c.361 8.014 6.963 14.325 14.985 14.325h89.845c7.991 0 14.579-6.264 14.981-14.244l9.211-182.635h12.716l8.218 182.554c.361 8.014 6.963 14.325 14.985 14.325h89.845c7.991 0 14.579-6.264 14.981-14.244l9.211-182.635h21.929c8.284 0 15-6.716 15-15v-141.494c0-34.841-28.256-63.186-62.987-63.186zm-312.842 386.559h-61.325l-8.476-166.879h78.218zm44.851-196.879h-151.022v-126.494c0-18.299 14.798-33.186 32.987-33.186h27.524v105.021c0 8.284 6.716 15 15 15s15-6.716 15-15v-105.021h27.524c18.189 0 32.987 14.887 32.987 33.186zm105.638 196.879h-61.242l-7.512-166.879h77.171zm44.851-196.879h-120.489v-126.494c0-11.406-3.044-22.105-8.336-31.352 8.586-2.988 12.828-1.37 38.314-1.833v105.021c0 8.284 6.716 15 15 15s15-6.716 15-15v-105.022h27.524c18.189 0 32.987 14.887 32.987 33.186zm105.105 196.879h-61.243l-7.512-166.879h77.171zm45.384-196.879h-120.489v-126.494c0-11.408-3.045-22.109-8.339-31.358 8.552-2.976 12.815-1.367 38.316-1.828v105.021c0 8.284 6.716 15 15 15s15-6.716 15-15v-105.021h27.524c18.189 0 32.987 14.887 32.987 33.186v126.494z"/><path d="m257.066 95.318c26.205 0 47.524-21.38 47.524-47.659s-21.319-47.659-47.524-47.659-47.524 21.38-47.524 47.659 21.319 47.659 47.524 47.659zm0-65.318c9.663 0 17.524 7.922 17.524 17.659s-7.861 17.659-17.524 17.659-17.524-7.922-17.524-17.659 7.861-17.659 17.524-17.659z"/><path d="m106.578 95.318c26.205 0 47.524-21.38 47.524-47.659s-21.32-47.659-47.524-47.659c-26.205 0-47.525 21.38-47.525 47.659s21.32 47.659 47.525 47.659zm0-65.318c9.663 0 17.524 7.922 17.524 17.659s-7.861 17.659-17.524 17.659-17.524-7.922-17.524-17.659 7.861-17.659 17.524-17.659z"/></g></svg>