<?xml version="1.0" encoding="iso-8859-1"?>
<!-- Generator: Adobe Illustrator 19.0.0, SVG Export Plug-In . SVG Version: 6.00 Build 0)  -->
<svg version="1.1" id="Capa_1" xmlns="http://www.w3.org/2000/svg" xmlns:xlink="http://www.w3.org/1999/xlink" x="0px" y="0px"
	 viewBox="0 0 448 448" style="enable-background:new 0 0 448 448;" xml:space="preserve">
<g>
	<g>
		<path d="M416,96H288V48c0-9.6-8-16-16-16h-96c-9.6,0-16,8-16,16v48H32c-17.6,0-32,14.4-32,32v256c0,17.6,14.4,32,32,32h384
			c17.6,0,32-14.4,32-32V128C448,110.4,433.6,96,416,96z M176,48h96v48h-96V48z M80,400H32c-8,0-16-6.4-16-16V128
			c0-9.6,6.4-16,16-16h48V400z M352,400H96V112h256V400z M432,384c0,8-6.4,16-16,16h-48V112h48c9.6,0,16,8,16,16V384z"/>
	</g>
</g>
<g>
</g>
<g>
</g>
<g>
</g>
<g>
</g>
<g>
</g>
<g>
</g>
<g>
</g>
<g>
</g>
<g>
</g>
<g>
</g>
<g>
</g>
<g>
</g>
<g>
</g>
<g>
</g>
<g>
</g>
</svg>
