<svg id="line_icons" height="512" viewBox="0 0 74 74" width="512" xmlns="http://www.w3.org/2000/svg" data-name="line icons"><path d="m67.888 64.969h-61.776a4.117 4.117 0 0 1 -4.112-4.113v-40.39a4.117 4.117 0 0 1 4.112-4.113h61.776a4.117 4.117 0 0 1 4.112 4.113v40.39a4.117 4.117 0 0 1 -4.112 4.113zm-61.776-46.616a2.115 2.115 0 0 0 -2.112 2.113v40.39a2.115 2.115 0 0 0 2.112 2.113h61.776a2.115 2.115 0 0 0 2.112-2.113v-40.39a2.115 2.115 0 0 0 -2.112-2.113z"/><path d="m50.968 18.353h-27.936a1 1 0 0 1 -1-1v-5.635a4.693 4.693 0 0 1 4.688-4.687h20.56a4.693 4.693 0 0 1 4.688 4.687v5.635a1 1 0 0 1 -1 1zm-26.936-2h25.936v-4.635a2.69 2.69 0 0 0 -2.688-2.687h-20.56a2.69 2.69 0 0 0 -2.688 2.687z"/><path d="m18.532 64.969h-6.007a1 1 0 0 1 -1-1v-46.616a1 1 0 0 1 1-1h6.007a1 1 0 0 1 1 1v46.616a1 1 0 0 1 -1 1zm-5.007-2h4.007v-44.616h-4.007z"/><path d="m61.475 64.969h-6.007a1 1 0 0 1 -1-1v-46.616a1 1 0 0 1 1-1h6.007a1 1 0 0 1 1 1v46.616a1 1 0 0 1 -1 1zm-5.007-2h4.007v-44.616h-4.007z"/></svg>